<?xml version="1.0" encoding="UTF-8"?>
<svg version="1.1" xmlns="http://www.w3.org/2000/svg" width="512" height="512">
<path d="M0 0 C4.32095384 1.50177117 8.42334937 3.37060909 12.5625 5.3125 C13.81688409 5.88932165 15.07161466 6.46539034 16.32666016 7.04077148 C114.87305225 52.48445638 114.87305225 52.48445638 139 76 C139.886875 76.845625 140.77375 77.69125 141.6875 78.5625 C155 92.59459459 155 92.59459459 155 97 C155.66 97 156.32 97 157 97 C157.25007812 96.278125 157.50015625 95.55625 157.7578125 94.8125 C159.11138659 91.74780396 160.74160037 89.57618069 162.875 87 C163.89207031 85.7625 163.89207031 85.7625 164.9296875 84.5 C165.95449219 83.2625 165.95449219 83.2625 167 82 C167.64066406 81.16082031 168.28132812 80.32164063 168.94140625 79.45703125 C172.69849444 74.9727647 177.41022808 71.59278835 182 68 C182.77730469 67.37222656 183.55460937 66.74445313 184.35546875 66.09765625 C194.13146593 58.55435011 205.18444445 52.88467922 216 47 C216.61010925 46.66766357 217.22021851 46.33532715 217.84881592 45.99291992 C245.52143725 30.93963951 273.68292117 16.69332639 302.4375 3.8125 C303.31752686 3.40837891 304.19755371 3.00425781 305.10424805 2.58789062 C305.91418213 2.23533203 306.72411621 1.88277344 307.55859375 1.51953125 C308.23204834 1.22151611 308.90550293 0.92350098 309.59936523 0.61645508 C314.11153327 -0.54221718 317.91654635 -0.9381942 322.19288635 0.98747253 C324.63874322 2.43760662 326.97596834 3.99065854 329.31640625 5.60546875 C330.19890045 6.19295898 331.08139465 6.78044922 331.9906311 7.38574219 C334.86006246 9.30223339 337.71117229 11.24420009 340.5625 13.1875 C342.5325846 14.51169939 344.50370215 15.83436325 346.47583008 17.15551758 C350.43998904 19.81582688 354.39656695 22.48684898 358.34667969 25.16796875 C363.46911881 28.64446027 368.61036463 32.09194532 373.7578125 35.53125 C376.56901158 37.41472919 379.37849983 39.3007435 382.1875 41.1875 C383.17739426 41.85100967 383.17739426 41.85100967 384.18728638 42.52792358 C386.01755541 43.75720014 387.84346735 44.99265363 389.66796875 46.23046875 C390.68141357 46.91520264 391.6948584 47.59993652 392.73901367 48.30541992 C395 50 395 50 396 52 C396.09723845 53.61691813 396.13098851 55.23782798 396.13422108 56.85766411 C396.13867892 57.8902645 396.14313676 58.92286489 396.14772969 59.98675621 C396.14745315 61.70150601 396.14745315 61.70150601 396.14717102 63.45089722 C396.15084771 64.6585153 396.1545244 65.86613339 396.1583125 67.11034596 C396.16745146 70.47298433 396.17205167 73.83557385 396.17470181 77.19822001 C396.17860038 80.8206615 396.18817893 84.4430888 396.19691467 88.06552124 C396.21669038 96.81820754 396.22674608 105.57089502 396.23564246 114.32359809 C396.24002301 118.44235764 396.24539037 122.56111589 396.25063133 126.67987442 C396.2676437 140.36585918 396.28213926 154.05184313 396.28938007 167.73783684 C396.29129006 171.2905566 396.29321038 174.84327636 396.29516602 178.39599609 C396.29564976 179.27903782 396.2961335 180.16207955 396.2966319 181.07188012 C396.30493743 195.38598024 396.3302831 209.69999693 396.36274669 224.0140606 C396.39578255 238.69978608 396.41382563 253.38546911 396.41702431 268.07123196 C396.4191925 276.3209463 396.42798613 284.57053893 396.45348549 292.82021713 C396.47514502 299.843945 396.48326639 306.86752161 396.47351871 313.89127909 C396.46896029 317.47662855 396.47094885 321.06166563 396.49028015 324.64697266 C396.51103554 328.52982492 396.5009707 332.41224202 396.48774719 336.2951355 C396.50420106 338.00319313 396.50420106 338.00319313 396.52098733 339.74575698 C396.51240644 340.78357287 396.50382555 341.82138876 396.49498463 342.89065361 C396.49596144 343.78722833 396.49693824 344.68380304 396.49794465 345.60754669 C395.8331808 348.80150907 394.49279634 349.95698131 392 352 C389.49718727 353.26256197 387.06112861 354.37990837 384.4765625 355.44140625 C383.72051727 355.76099304 382.96447205 356.08057983 382.18551636 356.40985107 C379.66927839 357.4703861 377.14730932 358.51649562 374.625 359.5625 C372.82977466 360.31527605 371.03485908 361.0687912 369.24023438 361.82299805 C363.49982746 364.23066525 357.75072557 366.617104 352 369 C351.0678064 369.38663818 350.13561279 369.77327637 349.1751709 370.17163086 C339.71351196 374.09555444 330.24639741 378.00614566 320.77508545 381.90670776 C307.8782877 387.21821729 294.99814415 392.56894001 282.125 397.9375 C281.14480896 398.34618317 280.16461792 398.75486633 279.15472412 399.17593384 C273.14856382 401.68021969 267.1428013 404.18545816 261.13720703 406.69110107 C252.36025278 410.35300349 243.58300012 414.01418872 234.80511475 417.67385864 C231.70462721 418.96679461 228.60450105 420.26059414 225.50439453 421.55444336 C223.59930151 422.34883791 221.69419171 423.14319224 219.7890625 423.9375 C218.94323608 424.29078873 218.09740967 424.64407745 217.22595215 425.0080719 C215.60496694 425.683506 213.98007012 426.34963362 212.35128784 427.00604248 C210.00612533 427.96025312 210.00612533 427.96025312 207.85598755 429.11749268 C199.21267291 433.32619272 189.87272073 432.65689402 180.4765625 432.671875 C178.56578185 432.68476047 176.65500499 432.69821928 174.74423218 432.71221924 C170.74492272 432.73609246 166.74595764 432.74358926 162.74658203 432.74121094 C157.67873001 432.74080672 152.61314865 432.79520935 147.54583168 432.86429977 C143.59718173 432.90930667 139.64905612 432.91687176 135.70017624 432.91477203 C133.83543513 432.91942173 131.97067234 432.9367074 130.10618973 432.9681015 C115.87271668 433.18518433 104.8347518 430.13787654 92 424 C92.01450006 425.06932455 92.01450006 425.06932455 92.02929306 426.16025162 C92.11794118 432.77241624 92.17618819 439.38446198 92.21972656 445.99707031 C92.23985164 448.49193065 92.26715452 450.98674378 92.30175781 453.48144531 C92.35023457 457.06587368 92.3729602 460.64967885 92.390625 464.234375 C92.41127014 465.35116638 92.43191528 466.46795776 92.45318604 467.61859131 C92.45348816 468.65936829 92.45379028 469.70014526 92.45410156 470.77246094 C92.46298401 471.68735291 92.47186646 472.60224487 92.48101807 473.54486084 C91.84203152 476.80627864 90.59201716 477.97978411 88 480 C82.58129028 480.98416736 79.8659023 480.2536737 75.34375 477.1484375 C73.71434842 475.90988103 72.09995478 474.65136842 70.5 473.375 C69.69691406 472.75753906 68.89382812 472.14007813 68.06640625 471.50390625 C61.79258778 466.67398117 61.79258778 466.67398117 58.80078125 464.12988281 C58.11371094 463.56366211 57.42664063 462.99744141 56.71875 462.4140625 C56.11998047 461.90053223 55.52121094 461.38700195 54.90429688 460.85791016 C52.94835584 459.73596944 52.94835584 459.73596944 50.53100586 460.65429688 C48.05440546 461.97107332 45.97515957 463.36897086 43.78515625 465.1171875 C43.01623047 465.72433594 42.24730469 466.33148438 41.45507812 466.95703125 C40.27075195 467.90642578 40.27075195 467.90642578 39.0625 468.875 C24.36203296 480.5726645 24.36203296 480.5726645 19.875 480.5 C16 480 16 480 13.79193115 478.49053955 C11.28037737 474.99982283 11.42770876 471.79511667 11.45410156 467.65136719 C11.44376389 466.81197601 11.43342621 465.97258484 11.42277527 465.10775757 C11.3933114 462.33726839 11.39184735 459.56750864 11.390625 456.796875 C11.37564576 454.87443648 11.35891915 452.95201084 11.34051514 451.02960205 C11.29680065 445.97273167 11.27683343 440.91603489 11.26177979 435.85900879 C11.2422235 430.69756792 11.20025182 425.53631495 11.16015625 420.375 C11.08480973 410.2500579 11.03454513 400.12515776 11 390 C9.8666925 389.53056976 8.73338501 389.06113953 7.56573486 388.57748413 C-0.85824473 385.08798008 -9.28165195 381.59711241 -17.703125 378.1015625 C-25.10141887 375.03082256 -32.5014614 371.96435834 -39.90332031 368.90222168 C-44.28464396 367.08871206 -48.66456375 365.2718294 -53.04418945 363.45422363 C-55.17691202 362.56993393 -57.31021129 361.68703379 -59.4440918 360.80554199 C-62.4486321 359.56411768 -65.45108839 358.31777676 -68.453125 357.0703125 C-69.34723083 356.7022348 -70.24133667 356.3341571 -71.16253662 355.95492554 C-82.35578961 351.28842079 -82.35578961 351.28842079 -84 348 C-84.09810169 346.38404043 -84.13280192 344.76405833 -84.13701439 343.1451292 C-84.14208893 342.11314551 -84.14716347 341.08116182 -84.15239179 340.01790589 C-84.15288955 338.87542148 -84.15338731 337.73293706 -84.15390015 336.55583191 C-84.1582824 335.34891939 -84.16266465 334.14200687 -84.1671797 332.89852124 C-84.17826175 329.53781548 -84.18479753 326.17715637 -84.18936086 322.81643903 C-84.19531049 319.19602156 -84.20692185 315.57562132 -84.21765137 311.95521545 C-84.24218888 303.20697711 -84.25680389 294.45873306 -84.26971143 285.71047089 C-84.27342219 283.24065987 -84.27739551 280.77084943 -84.2814641 278.30103898 C-84.30669789 262.97202345 -84.32875641 247.64300705 -84.34119225 232.31397533 C-84.34412206 228.76229537 -84.34708371 225.21061544 -84.35009766 221.65893555 C-84.35084371 220.77615613 -84.35158976 219.89337671 -84.35235842 218.9838464 C-84.36501753 204.67686761 -84.39824735 190.37001294 -84.43989949 176.06309219 C-84.48228861 161.38301279 -84.50588372 146.70299699 -84.51111281 132.02285653 C-84.51453022 123.77699061 -84.52632417 115.53131871 -84.55921555 107.28551292 C-84.58717571 100.26435524 -84.59823323 93.24343133 -84.58702008 86.22222229 C-84.58182308 82.6387056 -84.58478658 79.05567877 -84.60948563 75.47223282 C-84.63602351 71.58966087 -84.6239531 67.70776163 -84.60800171 63.82511902 C-84.62882484 62.12143065 -84.62882484 62.12143065 -84.65006864 60.38332433 C-84.57242532 52.74668841 -84.57242532 52.74668841 -81.59262466 48.85974884 C-80.30927546 47.93917316 -80.30927546 47.93917316 -79 47 C-78.31030121 46.47823685 -77.62060242 45.95647369 -76.91000366 45.41889954 C-76.22088898 44.9691124 -75.53177429 44.51932526 -74.82177734 44.0559082 C-74.02748322 43.53320343 -73.23318909 43.01049866 -72.41482544 42.47195435 C-71.56379242 41.92046722 -70.7127594 41.3689801 -69.8359375 40.80078125 C-68.48989944 39.91771805 -68.48989944 39.91771805 -67.1166687 39.01681519 C-64.20664316 37.10939322 -61.29119478 35.21047418 -58.375 33.3125 C-54.37624302 30.70260094 -50.37927441 28.08997426 -46.3828125 25.4765625 C-44.90645325 24.51235634 -44.90645325 24.51235634 -43.40026855 23.52867126 C-37.67486113 19.78112261 -31.99562879 15.97743851 -26.3671875 12.0859375 C-25.1284911 11.23516369 -23.88972483 10.3844916 -22.65087891 9.53393555 C-20.44343497 8.01709966 -18.25541029 6.48071329 -16.07177734 4.92895508 C-6.39815157 -1.70786447 -6.39815157 -1.70786447 0 0 Z " fill="#000101" transform="translate(100,16)"/>
<path d="M0 0 C0 89.43 0 178.86 0 271 C-45.5767384 290.37011382 -45.5767384 290.37011382 -59.93008423 296.25811768 C-64.66781988 298.20191085 -69.40204827 300.15422417 -74.13671875 302.10546875 C-75.10933151 302.50612549 -76.08194427 302.90678223 -77.08403015 303.31958008 C-88.17308476 307.89042465 -99.24291642 312.50725047 -110.3125 317.125 C-114.27857316 318.77882014 -118.24474851 320.43239515 -122.2109375 322.0859375 C-123.18181808 322.49071823 -124.15269867 322.89549896 -125.15299988 323.31254578 C-134.9970637 327.41636375 -144.84226991 331.51741486 -154.6914978 335.60882568 C-156.51160987 336.36522171 -158.33145778 337.12225368 -160.15103149 337.87994385 C-162.64036542 338.91641645 -165.13059918 339.95069502 -167.62109375 340.984375 C-168.36022003 341.29267242 -169.09934631 341.60096985 -169.86087036 341.91860962 C-174.88577579 344 -174.88577579 344 -176 344 C-176 254.57 -176 165.14 -176 73 C-130.2654512 53.56281676 -130.2654512 53.56281676 -117.52389526 48.31210327 C-114.19050861 46.93836914 -110.85915882 45.55971899 -107.52757263 44.18162537 C-105.81132134 43.47174709 -104.09498409 42.76207657 -102.3785553 42.05262756 C-94.05835955 38.61318355 -85.7470758 35.15250639 -77.4375 31.6875 C-76.00700498 31.09121215 -74.57650364 30.49493945 -73.14599609 29.89868164 C-66.40532115 27.088784 -59.66520355 24.27755084 -52.92529297 21.46582031 C-47.48666248 19.19697814 -42.04773682 16.92884463 -36.6086731 14.66104126 C-34.47482897 13.77116255 -32.34109849 12.88101125 -30.20748901 11.99057007 C-27.20891269 10.73914863 -24.20996182 9.48862861 -21.2109375 8.23828125 C-19.88496803 7.68450302 -19.88496803 7.68450302 -18.5322113 7.11953735 C-1.44591188 0 -1.44591188 0 0 0 Z " fill="#3296E7" transform="translate(480,84)"/>
<path d="M0 0 C16.1532966 6.46131864 32.26609674 12.97238967 48.3125 19.6875 C50.40844936 20.562934 52.50447946 21.4381747 54.60058594 22.31323242 C58.78241203 24.05922649 62.96387685 25.80608095 67.14501953 27.55371094 C74.61789313 30.67673471 82.09425621 33.7913627 89.57104492 36.90499878 C92.46546609 38.1104806 95.35963994 39.31655552 98.2538147 40.52262878 C104.1088692 42.96256055 109.96425886 45.401685 115.82015991 47.83958435 C118.91074848 49.12628445 122.00121496 50.41327763 125.0916748 51.70028687 C126.50787515 52.28996815 127.92412928 52.87952032 129.3404541 53.46890259 C144.90728011 59.94687737 160.45085988 66.47939285 176 73 C176 162.43 176 251.86 176 344 C157.66665465 337.12499549 157.66665465 337.12499549 151.3046875 334.36328125 C150.19608871 333.8881459 150.19608871 333.8881459 149.06509399 333.40341187 C147.48722083 332.72713957 145.90994624 332.04946913 144.33325195 331.37045288 C139.96332983 329.48977841 135.58736738 327.62328338 131.2109375 325.7578125 C129.8370285 325.17216774 129.8370285 325.17216774 128.43536377 324.57469177 C118.1554413 320.20181952 107.82997899 315.94045624 97.5 311.6875 C93.64054635 310.09784714 89.78117161 308.50800283 85.921875 306.91796875 C84.95381927 306.51917007 83.98576355 306.1203714 82.9883728 305.70948792 C71.56418102 301.00039466 60.15630801 296.25221161 48.75 291.5 C47.79085693 291.1007431 46.83171387 290.70148621 45.84350586 290.29013062 C30.53729659 283.91810063 15.26964404 277.46023402 0 271 C0 181.57 0 92.14 0 0 Z " fill="#3296E7" transform="translate(32,84)"/>
<path d="M0 0 C2.83789062 1.75585938 2.83789062 1.75585938 5 5 C5.71423006 8.97243841 5.65280787 12.87972196 5.59375 16.90625 C5.59379028 18.06370728 5.59383057 19.22116455 5.59387207 20.41369629 C5.58851653 22.85804684 5.57093268 25.30239694 5.54199219 27.74658203 C5.50015061 31.48653833 5.50092365 35.22469293 5.5078125 38.96484375 C5.49731945 41.34115834 5.48438074 43.71746365 5.46875 46.09375 C5.46844788 47.77047791 5.46844788 47.77047791 5.46813965 49.4810791 C5.45222778 50.52566284 5.43631592 51.57024658 5.41992188 52.64648438 C5.41150269 53.5618396 5.4030835 54.47719482 5.39440918 55.42028809 C4.91140586 58.57946763 3.89782365 60.44103966 2 63 C0.32978821 64.15003967 0.32978821 64.15003967 -1.52612305 64.90258789 C-2.23361694 65.19876007 -2.94111084 65.49493225 -3.67004395 65.80007935 C-4.82917297 66.25675491 -4.82917297 66.25675491 -6.01171875 66.72265625 C-6.83224731 67.06110565 -7.65277588 67.39955505 -8.49816895 67.7482605 C-11.2220951 68.86794672 -13.95456575 69.96500571 -16.6875 71.0625 C-18.59547798 71.84219375 -20.50277528 72.62355504 -22.40942383 73.40649414 C-26.46685953 75.07100732 -30.52738632 76.72766639 -34.58984375 78.37988281 C-41.15873823 81.05750901 -47.7062697 83.78498038 -54.25 86.5234375 C-55.33497269 86.97732346 -56.41994537 87.43120941 -57.53779602 87.89884949 C-59.69563981 88.8017908 -61.85342155 89.7048804 -64.01113892 90.60812378 C-69.08272659 92.73069356 -74.1556764 94.84994762 -79.23046875 96.96484375 C-80.10272095 97.32971893 -80.97497314 97.69459412 -81.87365723 98.07052612 C-84.2448525 99.05788589 -86.62013469 100.03374106 -89 101 C-89.74214752 101.30237579 -90.48429504 101.60475159 -91.24893188 101.91629028 C-95.98370398 103.78021679 -99.03814573 104.55666016 -104 103 C-106.61171299 99.52197199 -107.38028135 96.95630101 -107.41992188 92.64648438 C-107.43583374 91.60190063 -107.45174561 90.55731689 -107.46813965 89.4810791 C-107.46834106 88.3632605 -107.46854248 87.24544189 -107.46875 86.09375 C-107.48017029 84.35756409 -107.48017029 84.35756409 -107.49182129 82.58630371 C-107.50261442 80.14203039 -107.50547862 77.69771098 -107.50097656 75.25341797 C-107.50000344 71.51321693 -107.54165497 67.77506163 -107.5859375 64.03515625 C-107.59114394 61.65885844 -107.5938327 59.28255351 -107.59375 56.90625 C-107.61014526 55.7884314 -107.62654053 54.67061279 -107.64343262 53.5189209 C-107.57512844 45.85140754 -107.57512844 45.85140754 -104.95947266 41.97924805 C-101.43998275 39.62546941 -97.98481574 37.97161822 -94.0546875 36.42578125 C-93.26798172 36.1041954 -92.48127594 35.78260956 -91.67073059 35.45127869 C-89.07664392 34.39356458 -86.47592025 33.35328285 -83.875 32.3125 C-82.05516204 31.57337491 -80.23591649 30.8327897 -78.41723633 30.09082031 C-75.5661991 28.92795418 -72.7147822 27.76611948 -69.86146545 26.6088562 C-60.03801176 22.62352665 -50.26041132 18.53097572 -40.4866333 14.42562866 C-37.7472999 13.2751158 -35.00733398 12.12612505 -32.26708984 10.9777832 C-31.40776855 10.61751541 -30.54844727 10.25724762 -29.66308594 9.88606262 C-28.00508371 9.19176017 -26.34657099 8.49867525 -24.6875 7.80693054 C-21.21893479 6.35940542 -17.75777752 4.90257511 -14.32275391 3.37695312 C-13.27394043 2.91740234 -12.22512695 2.45785156 -11.14453125 1.984375 C-10.27803955 1.59475586 -9.41154785 1.20513672 -8.51879883 0.80371094 C-5.39509388 -0.19301647 -3.26011355 -0.47580467 0 0 Z " fill="#010102" transform="translate(443,152)"/>
<path d="M0 0 C1.11576416 0.51844482 2.23152832 1.03688965 3.38110352 1.57104492 C4.56889404 2.12767822 5.75668457 2.68431152 6.98046875 3.2578125 C8.23035566 3.84162062 9.48027477 4.42535983 10.73022461 5.0090332 C14.54607157 6.79337595 18.35758273 8.58684318 22.16796875 10.3828125 C23.30556641 10.9185791 24.44316406 11.4543457 25.61523438 12.00634766 C38.41229113 18.04940224 51.08337661 24.26669688 63.54492188 30.97558594 C66.54325574 32.58414852 69.55086198 34.17470722 72.55859375 35.765625 C105.60860701 53.30972144 105.60860701 53.30972144 119.16796875 65.3828125 C119.79832031 65.9190625 120.42867187 66.4553125 121.078125 67.0078125 C129.72699842 74.88833498 137.78866818 87.82620974 140.16796875 99.3828125 C140.20685224 101.71582183 140.21283225 104.04991051 140.16796875 106.3828125 C136.88101978 106.13820234 136.01960792 105.22354976 133.72265625 102.7578125 C132.82306033 101.63789709 131.93019407 100.51255343 131.04296875 99.3828125 C116.87841122 82.11572131 98.02914195 70.24568141 78.57128906 59.68701172 C77.03994676 58.85600496 75.51274857 58.01728253 73.99121094 57.16845703 C72.10207989 56.11513166 70.20161853 55.08773325 68.29296875 54.0703125 C67.26429688 53.51730469 66.235625 52.96429688 65.17578125 52.39453125 C61.40435983 51.12596223 58.99260344 51.3736619 55.16796875 52.3828125 C52.8404753 55.87405267 52.66497559 57.27503501 53.16796875 61.3828125 C56.4735917 65.62546243 61.0252209 67.5432363 65.73046875 69.8828125 C83.84336402 79.19119135 103.39843789 90.11744049 116.16796875 106.3828125 C110.04647827 106.7067662 105.89850019 105.89783296 100.33984375 103.41015625 C99.60605499 103.09598755 98.87226624 102.78181885 98.11624146 102.45812988 C95.71099227 101.42514555 93.31481248 100.3726338 90.91796875 99.3203125 C89.2196069 98.58766289 87.52053794 97.85665048 85.82080078 97.12719727 C82.31673592 95.62255559 78.81530656 94.11201164 75.31542969 92.59765625 C68.32269917 89.57978575 61.29157659 86.65553421 54.25637817 83.7383728 C51.27626147 82.50230377 48.29773133 81.2624355 45.31916809 80.02262878 C43.08418362 79.09236552 40.84898631 78.16261508 38.61376953 77.23291016 C34.19205103 75.39330554 29.77165747 73.55053278 25.3515625 71.70703125 C7.47420529 64.25155465 -10.41306409 56.82031663 -28.30712891 49.4050293 C-41.15547672 44.08034294 -53.99776072 38.74135759 -66.83203125 33.3828125 C-63.19748564 29.34335729 -58.90335944 26.53127653 -54.39453125 23.5703125 C-53.64365234 23.05533203 -52.89277344 22.54035156 -52.11914062 22.00976562 C-51.38630859 21.52830078 -50.65347656 21.04683594 -49.8984375 20.55078125 C-49.23787354 20.11016357 -48.57730957 19.6695459 -47.89672852 19.21557617 C-44.06627573 17.67062235 -41.21409905 19.2247947 -37.54345703 20.74291992 C-36.28557909 21.31926695 -35.0303523 21.90142317 -33.77734375 22.48828125 C-33.09100357 22.80444901 -32.40466339 23.12061676 -31.69752502 23.44636536 C-30.2187146 24.12822498 -28.74098988 24.81244324 -27.26425171 25.4987793 C-24.93638532 26.57990101 -22.60511614 27.65333089 -20.27270508 28.72460938 C-13.92629689 31.64093185 -7.58468864 34.56750527 -1.25048828 37.51025391 C2.31800374 39.16788468 5.89113121 40.81510924 9.46759033 42.45547485 C10.80140838 43.06996785 12.13327461 43.68871665 13.46307373 44.31185913 C15.31453167 45.17924125 17.1719329 46.03243709 19.03125 46.8828125 C20.07579346 47.3675 21.12033691 47.8521875 22.1965332 48.3515625 C25.41950631 49.47010974 27.78129071 49.69860341 31.16796875 49.3828125 C33.66796875 47.8828125 33.66796875 47.8828125 35.16796875 45.3828125 C35.83463542 42.3828125 35.83463542 42.3828125 35.16796875 39.3828125 C32.15518782 35.67589706 28.79433877 34.05174899 24.47265625 32.1328125 C23.81544083 31.83766251 23.1582254 31.54251251 22.48109436 31.23841858 C20.33865321 30.27824773 18.19089842 29.33063268 16.04296875 28.3828125 C14.56277333 27.7216486 13.08304036 27.05944844 11.60375977 26.39624023 C9.34708028 25.38467923 7.09012183 24.37380273 4.83161926 23.36631775 C-2.43967205 20.121993 -9.67045543 16.79317958 -16.89453125 13.4453125 C-18.00521973 12.93162109 -19.1159082 12.41792969 -20.26025391 11.88867188 C-22.78463038 10.72102123 -25.30857299 9.55244582 -27.83203125 8.3828125 C-26.37283775 4.00523201 -23.36457613 2.59148036 -19.64453125 0.0703125 C-18.98388672 -0.40986328 -18.32324219 -0.89003906 -17.64257812 -1.38476562 C-16.98966797 -1.82884766 -16.33675781 -2.27292969 -15.6640625 -2.73046875 C-15.07343018 -3.14079346 -14.48279785 -3.55111816 -13.87426758 -3.97387695 C-9.2858714 -5.41923546 -4.13740952 -1.92773767 0 0 Z " fill="#E5EAEE" transform="translate(107.83203125,37.6171875)"/>
<path d="M0 0 C0.77988281 0.5053125 1.55976563 1.010625 2.36328125 1.53125 C3.46285156 2.2221875 4.56242188 2.913125 5.6953125 3.625 C6.85905658 4.42186882 8.01916583 5.22406912 9.17578125 6.03125 C9.77326172 6.43472656 10.37074219 6.83820312 10.98632812 7.25390625 C12.48471736 8.29164782 13.92943739 9.40600797 15.36328125 10.53125 C15.36328125 11.19125 15.36328125 11.85125 15.36328125 12.53125 C10.63627197 14.76501461 5.90656126 16.99298718 1.17578125 19.21875 C0.46419861 19.55394653 -0.24738403 19.88914307 -0.98052979 20.23449707 C-9.00127197 24.00967854 -17.03687059 27.73990219 -25.1484375 31.31640625 C-25.81741562 31.61210007 -26.48639374 31.90779388 -27.17564392 32.21244812 C-30.36873074 33.62213496 -33.56595047 35.02105497 -36.77026367 36.4050293 C-38.479198 37.15586792 -38.479198 37.15586792 -40.22265625 37.921875 C-41.7238501 38.5720459 -41.7238501 38.5720459 -43.25537109 39.23535156 C-45.91390624 40.4425239 -45.91390624 40.4425239 -47.63671875 43.53125 C-48.09827244 47.14675392 -48.09078758 48.86761094 -46.01171875 51.90625 C-42.8795457 54.04931577 -41.40973592 53.8898142 -37.63671875 53.53125 C-34.8287741 52.5924149 -32.20285458 51.33688794 -29.5390625 50.05078125 C-28.75965805 49.68593628 -27.9802536 49.32109131 -27.17723083 48.94519043 C-25.50545264 48.16116727 -23.8360646 47.37203094 -22.16888428 46.57827759 C-19.55801717 45.33604138 -16.94065303 44.10865964 -14.32080078 42.88549805 C-10.78492652 41.23392079 -7.25103634 39.57824525 -3.71923828 37.91796875 C2.88409697 34.81543151 9.49194739 31.72412957 16.12985229 28.69613647 C17.95478404 27.85911382 19.77252687 27.00647403 21.59008789 26.15356445 C23.22965454 25.40659302 23.22965454 25.40659302 24.90234375 24.64453125 C25.84287598 24.20923096 26.7834082 23.77393066 27.75244141 23.32543945 C30.82902594 22.38957546 32.32824898 22.52007685 35.36328125 23.53125 C37.67504883 24.83813477 37.67504883 24.83813477 40.0078125 26.47265625 C40.84892578 27.05595703 41.69003906 27.63925781 42.55664062 28.24023438 C43.85311523 29.15772461 43.85311523 29.15772461 45.17578125 30.09375 C46.05943359 30.70927734 46.94308594 31.32480469 47.85351562 31.95898438 C50.02872282 33.47575047 52.19827939 34.99996917 54.36328125 36.53125 C50.87188053 38.85885048 47.20932805 40.36376237 43.3515625 41.9609375 C42.53262009 42.30295197 41.71367767 42.64496643 40.86991882 42.99734497 C38.13978257 44.13665345 35.40778527 45.27142843 32.67578125 46.40625 C30.742719 47.21195284 28.80977856 48.01794798 26.87695312 48.82421875 C21.7456455 50.9638502 16.61277799 53.09971403 11.47955322 55.23474121 C6.43343922 57.33415077 1.38860479 59.43662927 -3.65625 61.5390625 C-5.65095576 62.37029082 -7.64566605 63.20150825 -9.64038086 64.03271484 C-10.62811493 64.44430847 -11.615849 64.8559021 -12.6335144 65.27996826 C-15.65603352 66.53929748 -18.67870476 67.79826093 -21.70141602 69.05712891 C-34.165497 74.2483989 -46.62628558 79.44744567 -59.08139038 84.66021729 C-61.73375307 85.76955351 -64.38694393 86.87688865 -67.0402832 87.98388672 C-74.97236262 91.29668193 -82.89373072 94.63015418 -90.78338623 98.04296875 C-94.29279897 99.56051835 -97.80634643 101.06836743 -101.32000732 102.5760498 C-102.96803448 103.28693198 -104.61382482 104.00302614 -106.25714111 104.72473145 C-108.51764645 105.71743425 -110.78509603 106.69235209 -113.0546875 107.6640625 C-113.70792496 107.95683075 -114.36116241 108.249599 -115.03419495 108.55123901 C-119.82771819 110.57409428 -123.53659996 110.79044042 -128.63671875 110.53125 C-124.80384957 105.80655322 -120.84127226 101.68611002 -116.07421875 97.90625 C-115.43637451 97.399729 -114.79853027 96.89320801 -114.14135742 96.37133789 C-101.33786713 86.46096586 -87.04585657 78.52071185 -72.76879883 70.95678711 C-71.97755615 70.53405518 -71.18631348 70.11132324 -70.37109375 69.67578125 C-69.67209961 69.30815674 -68.97310547 68.94053223 -68.25292969 68.56176758 C-66.46535215 67.61662787 -66.46535215 67.61662787 -65.63671875 65.53125 C-65.24739677 61.9494878 -65.20075157 60.16843279 -67.26171875 57.15625 C-70.42072807 54.99482257 -71.82659344 55.11910756 -75.63671875 55.53125 C-78.67407336 56.6937037 -81.47833012 58.21423788 -84.32421875 59.78125 C-85.15219971 60.22871582 -85.98018066 60.67618164 -86.83325195 61.13720703 C-109.03783868 73.31438948 -132.95294433 87.9018587 -148.015625 108.73046875 C-148.55058594 109.32472656 -149.08554687 109.91898437 -149.63671875 110.53125 C-150.62671875 110.53125 -151.61671875 110.53125 -152.63671875 110.53125 C-153.70526686 98.51008373 -146.5619453 86.34380333 -139.08984375 77.38671875 C-121.37819627 57.08544497 -95.78434129 45.6305965 -72.24609375 33.44921875 C-68.88643067 31.70886803 -65.54001906 29.94986633 -62.21484375 28.14453125 C-46.94517402 19.88449399 -31.18184685 12.5863199 -15.42871094 5.30175781 C-13.17259015 4.25725488 -10.94876193 3.18461583 -8.72753906 2.06542969 C-3.3401033 -0.59379614 -3.3401033 -0.59379614 0 0 Z " fill="#E6EAEE" transform="translate(416.63671875,33.46875)"/>
<path d="M0 0 C21.12 0 42.24 0 64 0 C64 26.4 64 52.8 64 80 C42.88 80 21.76 80 0 80 C0 53.6 0 27.2 0 0 Z " fill="#2D85CC" transform="translate(224,256)"/>
<path d="M0 0 C0 10.23 0 20.46 0 31 C-20.59584762 39.80965848 -41.21326717 48.55845103 -61.9375 57.0625 C-62.79513947 57.41505859 -63.65277893 57.76761719 -64.53640747 58.13085938 C-66.94915426 59.12200352 -69.36298607 60.11044358 -71.77734375 61.09765625 C-72.85887222 61.54172569 -72.85887222 61.54172569 -73.96224976 61.99476624 C-78.88396983 64 -78.88396983 64 -80 64 C-80 53.77 -80 43.54 -80 33 C-61.61601993 25.16825961 -43.21109527 17.39790687 -24.75 9.75 C-23.84919708 9.37674591 -22.94839417 9.00349182 -22.02029419 8.618927 C-19.44607476 7.55262887 -16.87157203 6.48701936 -14.296875 5.421875 C-13.14731575 4.94617317 -13.14731575 4.94617317 -11.97453308 4.46086121 C-1.17939035 0 -1.17939035 0 0 0 Z " fill="#97C5E6" transform="translate(432,172)"/>
<path d="M0 0 C3.32274404 2.45594125 4.77618008 3.9256644 5.625 8 C4.81849009 11.87124756 3.07193115 13.69120053 0 16 C-3.34402063 17.80408524 -6.81907362 19.23440132 -10.33203125 20.67578125 C-11.37251114 21.11459122 -12.41299103 21.55340118 -13.48500061 22.00550842 C-16.92282406 23.45261104 -20.36747902 24.88262649 -23.8125 26.3125 C-26.82581905 27.57496372 -29.83808901 28.8398913 -32.84999847 30.10571289 C-33.46255745 30.3631427 -34.07511642 30.62057251 -34.70623779 30.88580322 C-35.3237365 31.14534035 -35.9412352 31.40487747 -36.57744598 31.67227936 C-38.48122103 32.47172097 -40.38571735 33.26942373 -42.29034424 34.0668335 C-50.82077187 37.64159349 -59.32087183 41.28185273 -67.80337334 44.96882439 C-69.73985491 45.8103004 -71.67695325 46.6503393 -73.61427307 47.48988342 C-74.88437094 48.04037005 -76.15446677 48.59086135 -77.42456055 49.14135742 C-78.04591039 49.41065473 -78.66726023 49.67995203 -79.30743885 49.95740986 C-82.38765424 51.2932208 -85.4662182 52.63262454 -88.54165649 53.97940063 C-91.97952278 55.48260779 -95.42269038 56.97300071 -98.8671875 58.4609375 C-100.38567039 59.13117699 -100.38567039 59.13117699 -101.93482971 59.81495667 C-107.35266209 62.14061695 -112.07021058 63.85156869 -118 64 C-121.48304057 61.60540961 -122.7607855 60.14822958 -123.625 56 C-122.81652181 52.11930467 -121.0854806 50.30708174 -118 48 C-114.5115747 46.1227976 -110.88823336 44.62032169 -107.23046875 43.10546875 C-106.1454155 42.6443721 -105.06036224 42.18327545 -103.94242859 41.70820618 C-100.97914962 40.45141151 -98.01164863 39.20532756 -95.04183197 37.96408081 C-91.9276446 36.65988168 -88.81869225 35.34333212 -85.70947266 34.02734375 C-81.81892431 32.38117857 -77.92804902 30.73583042 -74.03491211 29.09579468 C-65.33614248 25.4288671 -56.66403773 21.70430319 -48.00828743 17.937006 C-46.05973545 17.08932529 -44.11050589 16.24322481 -42.16099548 15.39775085 C-41.21076492 14.98564661 -41.21076492 14.98564661 -40.24133778 14.56521702 C-38.97777885 14.0172962 -37.7141981 13.46942572 -36.4505949 12.92160702 C-33.36257182 11.58211869 -30.27624033 10.23896775 -27.19320679 8.88803101 C-23.75543044 7.38412985 -20.31207119 5.89378322 -16.8671875 4.40625 C-15.85089767 3.95743973 -14.83460785 3.50862946 -13.78752136 3.04621887 C-4.84048605 -0.79020628 -4.84048605 -0.79020628 0 0 Z " fill="#000204" transform="translate(459,272)"/>
<path d="M0 0 C21.12 0 42.24 0 64 0 C64 10.56 64 21.12 64 32 C42.88 32 21.76 32 0 32 C0 21.44 0 10.88 0 0 Z " fill="#2D85CC" transform="translate(224,400)"/>
<path d="M0 0 C21.12 0 42.24 0 64 0 C64 10.56 64 21.12 64 32 C42.88 32 21.76 32 0 32 C0 21.44 0 10.88 0 0 Z " fill="#99C7E8" transform="translate(224,352)"/>
<path d="M0 0 C21.12 0 42.24 0 64 0 C64 10.56 64 21.12 64 32 C42.88 32 21.76 32 0 32 C0 21.44 0 10.88 0 0 Z " fill="#99C7E8" transform="translate(224,208)"/>
<path d="M0 0 C21.12 0 42.24 0 64 0 C64 10.56 64 21.12 64 32 C42.88 32 21.76 32 0 32 C0 21.44 0 10.88 0 0 Z " fill="#2D85CC" transform="translate(224,160)"/>
<path d="M0 0 C18.02516432 6.75943662 18.02516432 6.75943662 24.30859375 9.39453125 C24.97166031 9.67221848 25.63472687 9.9499057 26.31788635 10.23600769 C27.67811617 10.80650729 29.03774325 11.37844636 30.39672852 11.9519043 C32.48733511 12.83351553 34.5804473 13.70898357 36.67382812 14.58398438 C38.01056472 15.145481 39.34715921 15.70731608 40.68359375 16.26953125 C41.87525146 16.77073486 43.06690918 17.27193848 44.29467773 17.78833008 C47 19 47 19 48 20 C48.08868299 22.95705321 48.11520296 25.89065056 48.09765625 28.84765625 C48.0962413 29.7340831 48.09482635 30.62050995 48.09336853 31.53379822 C48.08775215 34.37673254 48.07519691 37.21958931 48.0625 40.0625 C48.05748711 41.98502491 48.05292384 43.90755104 48.04882812 45.83007812 C48.03777741 50.55341549 48.02050183 55.27669458 48 60 C41.67246184 55.87691156 35.75875197 51.51513212 29.89453125 46.7578125 C26.33218641 44.59444519 25.09515805 44.12774612 21 45 C17.53829598 47.04529298 14.41230354 49.46108422 11.25 51.9375 C9.54754249 53.23915473 7.84444891 54.53997809 6.140625 55.83984375 C5.39329102 56.42113037 4.64595703 57.00241699 3.87597656 57.60131836 C2 59 2 59 0 60 C0 40.2 0 20.4 0 0 Z " fill="#E96E6C" transform="translate(128,412)"/>
<path d="M0 0 C3.32274404 2.45594125 4.77618008 3.9256644 5.625 8 C4.81051971 11.9095054 3.12780752 13.69894755 0 16 C-3.90305925 18.07446308 -7.94558057 19.77535099 -12.01953125 21.484375 C-13.19206955 21.98543762 -14.36460785 22.48650024 -15.57267761 23.00274658 C-18.04916984 24.05747354 -20.52712291 25.10717241 -23.0090332 26.14892578 C-26.17263794 27.47746704 -29.32736352 28.82572835 -32.47983265 30.18044662 C-35.50956387 31.47949285 -38.54603622 32.76255113 -41.58203125 34.046875 C-42.70623978 34.52912537 -43.8304483 35.01137573 -44.98872375 35.50823975 C-50.69917769 37.89174014 -55.77026655 39.88764812 -62 40 C-65.48304057 37.60540961 -66.7607855 36.14822958 -67.625 32 C-66.80785167 28.077688 -65.14445313 26.30084323 -62 24 C-57.92885561 21.84074643 -53.71505478 20.05588008 -49.47265625 18.26171875 C-48.23832445 17.73151855 -47.00431555 17.20056604 -45.77061462 16.66889954 C-43.19253285 15.56109496 -40.61099212 14.46192225 -38.02661133 13.36889648 C-34.72356538 11.97119938 -31.42974599 10.55312381 -28.13820744 9.12857342 C-25.59447939 8.03020218 -23.04634767 6.94237434 -20.49676323 5.85767555 C-18.69194457 5.08777896 -16.89074031 4.30942703 -15.08961487 3.53092957 C-13.9850444 3.06656998 -12.88047394 2.60221039 -11.74243164 2.1237793 C-10.2927877 1.5068647 -10.2927877 1.5068647 -8.81385803 0.87748718 C-5.67580468 -0.10109865 -3.26850262 -0.30769679 0 0 Z " fill="#010304" transform="translate(427,248)"/>
</svg>
